<?xml version="1.0" encoding="UTF-8" standalone="no" ?>
<!DOCTYPE svg PUBLIC "-//W3C//DTD SVG 1.1//EN" "http://www.w3.org/Graphics/SVG/1.1/DTD/svg11.dtd">
<svg xmlns="http://www.w3.org/2000/svg" xmlns:xlink="http://www.w3.org/1999/xlink" version="1.1" width="1080" height="1080" viewBox="0 0 1080 1080" xml:space="preserve">
<desc>Created with Fabric.js 5.2.4</desc>
<defs>
</defs>
<rect x="0" y="0" width="100%" height="100%" fill="transparent"></rect>
<g transform="matrix(1 0 0 1 540 540)" id="f645fc20-88b9-4278-97dc-3afb6de651f9"  >
<rect style="stroke: none; stroke-width: 1; stroke-dasharray: none; stroke-linecap: butt; stroke-dashoffset: 0; stroke-linejoin: miter; stroke-miterlimit: 4; fill: rgb(238,238,238); fill-opacity: 0.98; fill-rule: nonzero; opacity: 1; visibility: hidden;" vector-effect="non-scaling-stroke"  x="-540" y="-540" rx="0" ry="0" width="1080" height="1080" />
</g>
<g transform="matrix(1 0 0 1 540 540)" id="e9203e1d-6a2d-4852-93b6-e43cf58abb0c"  >
</g>
<g transform="matrix(1.48 0 0 1.58 658.8 659.91)"  >
<path style="stroke: none; stroke-width: 0; stroke-dasharray: none; stroke-linecap: butt; stroke-dashoffset: 0; stroke-linejoin: miter; stroke-miterlimit: 4; fill: rgb(51,147,253); fill-rule: nonzero; opacity: 1;" vector-effect="non-scaling-stroke"  transform=" translate(235, -433.5)" d="M 0 0 L 3 0 L -1 16 L -22 94 L -39 156 L -51 200 L -62 242 L -78 303 L -100 384 L -115 440 L -137 523 L -152 578 L -179 679 L -194 735 L -206 780 L -226 854 L -230 866 L -232 867 L -389 867 L -390 864 L -383 840 L -366 777 L -345 699 L -330 643 L -317 594 L -300 531 L -287 482 L -262 388 L -247 333 L -237 297 L -234 285 L -234 280 L -252 292 L -269 303 L -296 321 L -321 337 L -341 350 L -358 361 L -383 377 L -400 388 L -414 397 L -441 415 L -456 424 L -468 432 L -473 434 L -463 396 L -449 346 L -431 281 L -419 272 L -401 260 L -363 236 L -329 214 L -317 206 L -300 195 L -285 185 L -266 173 L -249 162 L -220 143 L -172 112 L -157 102 L -140 91 L -98 64 L -72 47 L -35 23 L -21 14 L -2 2 z" stroke-linecap="round" />
</g>
<g transform="matrix(1.62 0 0 1.86 292.89 870.56)"  >
<path style="stroke: none; stroke-width: 0; stroke-dasharray: none; stroke-linecap: butt; stroke-dashoffset: 0; stroke-linejoin: miter; stroke-miterlimit: 4; fill: rgb(7,39,83); fill-rule: nonzero; opacity: 1;" vector-effect="non-scaling-stroke"  transform=" translate(228.5, -251.5)" d="M 0 0 L 1 4 L -11 49 L -30 121 L -47 185 L -69 268 L -117 449 L -131 501 L -133 503 L -458 503 L -456 493 L -396 268 L -393 256 L -382 248 L -357 232 L -330 214 L -314 204 L -299 194 L -277 180 L -262 170 L -242 157 L -208 135 L -186 121 L -168 109 L -143 93 L -108 70 L -88 57 L -71 46 L -16 10 z" stroke-linecap="round" />
</g>
</svg>