<?xml version="1.0" encoding="UTF-8"?>
<svg version="1.1" viewBox="0 0 1600 1600" width="1280" height="1280" xmlns="http://www.w3.org/2000/svg">
<path transform="translate(0)" d="m0 0h1600v1600h-1600z" fill="#FDFEFE"/>
<path transform="translate(1177,369)" d="m0 0h3l-4 16-21 78-17 62-12 44-11 42-16 61-22 81-15 56-22 83-15 55-27 101-15 56-12 45-20 74-4 12-2 1h-157l-1-3 7-24 17-63 21-78 15-56 13-49 17-63 13-49 25-94 15-55 10-36 3-12v-5l-18 12-17 11-27 18-25 16-20 13-17 11-25 16-17 11-14 9-27 18-15 9-12 8-5 2 10-38 14-50 18-65 12-9 18-12 38-24 34-22 12-8 17-11 15-10 19-12 17-11 29-19 48-31 15-10 17-11 42-27 26-17 37-24 14-9 19-12z" fill="#3393FD"/>
<path transform="translate(878,733)" d="m0 0 1 4-12 45-19 72-17 64-22 83-48 181-14 52-2 2h-325l2-10 60-225 3-12 11-8 25-16 27-18 16-10 15-10 22-14 15-10 20-13 34-22 22-14 18-12 25-16 35-23 20-13 17-11 55-36z" fill="#072753"/>
</svg>
